<svg xmlns="http://www.w3.org/2000/svg" viewBox="0 0 1200 1200">
  <defs>
    <linearGradient id="g" x1="0" y1="0" x2="1200" y2="1200" gradientUnits="userSpaceOnUse">
      <stop offset="0%" stop-color="#4361ee"/>
      <stop offset="45%" stop-color="#7209b7"/>
      <stop offset="100%" stop-color="#f72585"/>
    </linearGradient>
    <linearGradient id="e" x1="400" y1="600" x2="800" y2="700" gradientUnits="userSpaceOnUse">
      <stop offset="0%" stop-color="#4cc9f0"/>
      <stop offset="100%" stop-color="#4361ee"/>
    </linearGradient>
  </defs>
  <path d="m605.53 330.19c-10.359 0-18.75-8.4375-18.75-18.75v-95.578c0-10.359 8.3906-18.75 18.75-18.75 10.312 0 18.75 8.3906 18.75 18.75v95.578c0 4.9688-2.0156 9.7031-5.5312 13.219s-8.25 5.5312-13.219 5.5312z" fill="url(#g)"/>
  <path d="m807.71 862.5h-404.44c-61.922-0.09375-112.12-50.297-112.27-112.22v-167.26c0.09375-61.922 50.344-112.08 112.27-112.12h404.44c61.922 0.046874 112.17 50.203 112.27 112.12v167.16c-0.09375 61.969-50.297 112.17-112.27 112.31zm-404.44-353.9c-41.25 0-74.719 33.422-74.766 74.625v167.16c0.09375 41.25 33.516 74.578 74.766 74.625h404.44c41.25-0.046874 74.719-33.469 74.766-74.719v-167.26c-0.09375-41.203-33.516-74.625-74.766-74.625z" fill="url(#g)"/>
  <path d="m217.69 788.81h-65.062c-65.344 0-99.469-62.531-99.469-124.22 0-31.312 8.3438-60.75 23.438-82.875 18.047-26.438 45.047-41.016 76.078-41.016h65.016c10.359 0 18.75 8.3906 18.75 18.75 0 10.359-8.3906 18.75-18.75 18.75h-65.062c-18.75 0-33.938 8.2969-45.094 24.656-10.734 15.75-16.875 38.203-16.875 61.688 0 41.766 19.406 86.719 61.969 86.719l65.062 0.046876c10.359 0 18.75 8.3906 18.75 18.75 0 10.312-8.3906 18.75-18.75 18.75z" fill="url(#g)"/>
  <path d="m1058.3 788.81h-65.062c-10.359 0-18.75-8.4375-18.75-18.75 0-10.359 8.3906-18.75 18.75-18.75h65.062c42.609 0 61.969-45 61.969-86.719 0-23.438-6.1875-45.984-16.875-61.688-11.156-16.406-26.344-24.656-45.094-24.656l-65.062-0.046875c-10.359 0-18.75-8.3906-18.75-18.75s8.3906-18.75 18.75-18.75h65.062c31.031 0 58.031 14.531 76.078 41.016 15.094 22.125 23.438 51.562 23.438 82.875-0.046875 61.688-34.219 124.22-99.516 124.22z" fill="url(#g)"/>
  <path d="m605.53 234.61c-33.562 0-63.797-20.203-76.641-51.234-12.797-30.984-5.7188-66.656 18.047-90.328 23.719-23.719 59.391-30.797 90.375-17.953s51.141 43.078 51.141 76.641c-0.09375 45.75-37.172 82.828-82.922 82.875zm0-128.34c-18.375 0-34.922 11.062-41.953 28.031s-3.1406 36.516 9.8438 49.5c12.984 12.984 32.484 16.875 49.453 9.8438 16.969-6.9844 28.078-23.531 28.078-41.906-0.046875-25.078-20.344-45.422-45.422-45.469z" fill="url(#g)"/>
  <path d="m390.47 437.72c-3.0469-0.046875-6.0938-0.65625-9-1.7344l-0.5625-0.1875-60.094-24.328h-99.094c-47.578-0.046875-93.188-18.984-126.84-52.594-33.656-33.656-52.641-79.266-52.688-126.84v-7.0312c0.09375-47.578 19.031-93.188 52.688-126.79 33.656-33.609 79.312-52.5 126.84-52.547h67.969c47.578 0.046875 93.188 18.938 126.84 52.594 33.609 33.609 52.547 79.172 52.641 126.74v7.0312c-0.046875 49.688-20.719 97.078-57.141 130.87l-0.375 51.938c0.46875 7.3125-2.7656 14.344-8.5781 18.75-3.6562 2.6719-8.0625 4.125-12.609 4.125zm-54.938-60.75 38.766 15.656 0.28125-36.375 0.046875 0.046875c-0.46875-5.6719 1.5938-11.25 5.6719-15.234h-0.046875c0.375-0.32812 0.70312-0.65625 1.125-0.98438 31.828-26.859 50.25-66.375 50.297-108.05v-7.0312c-0.14062-78.375-63.703-141.84-142.08-141.84h-67.969c-78.328 0.046876-141.79 63.516-141.94 141.84v7.0312c0.14062 78.375 63.703 141.84 142.03 141.84h100.69c4.5938-0.1875 9.1406 0.89062 13.172 3.0938z" fill="url(#g)"/>
  <path d="m816.37 985.6h-421.87c-51.797-0.1875-101.48-20.906-138.1-57.562-36.656-36.656-57.328-86.344-57.469-138.19v-229.69c0.046875-66.75 25.125-131.06 70.312-180.19 3.375-3.7031 8.0156-5.8594 12.984-6.0938 4.9688-0.23438 9.8438 1.5469 13.5 4.875 7.6406 6.9844 8.2031 18.844 1.1719 26.531-38.812 42.188-60.422 97.5-60.469 154.87v229.69c0.23438 87.281 70.875 157.97 158.16 158.34h421.87c87.234-0.42188 157.78-71.109 158.06-158.34v-229.69c-0.09375-61.031-24.375-119.48-67.547-162.61-43.172-43.125-101.67-67.406-162.71-67.406l-277.6-0.046875c-12.188 0.046875-24.375 1.0312-36.375 2.9062-5.0156 0.9375-10.125-0.1875-14.25-3.1406-4.125-2.9062-6.8906-7.3594-7.6875-12.375-0.79688-4.9688 0.46875-10.078 3.5156-14.109 3-4.0781 7.5469-6.7031 12.562-7.4062 13.969-2.2031 28.078-3.3281 42.188-3.375h277.64c147.66 0 267.74 120 267.74 267.56v229.69c-0.14062 51.844-20.766 101.58-57.422 138.28-36.656 36.656-86.344 57.375-138.24 57.562z" fill="url(#g)"/>
  <path d="m337.64 281.53h-187.82c-10.359 0-18.75-8.3906-18.75-18.75 0-10.312 8.3906-18.75 18.75-18.75h187.87-0.046875c10.359 0 18.75 8.4375 18.75 18.75 0 10.359-8.3906 18.75-18.75 18.75z" fill="rgba(255,255,255,0.85)"/>
  <path d="m337.64 205.4h-140.26c-10.359 0-18.75-8.3906-18.75-18.75 0-10.312 8.3906-18.75 18.75-18.75h140.26v0.046875c10.359 0 18.75 8.3906 18.75 18.75 0 10.312-8.3906 18.703-18.75 18.703z" fill="rgba(255,255,255,0.65)"/>
  <path d="m604.13 782.06c-23.109 0-45.234-9.4219-61.219-26.156v0.046875c-7.2188-7.4531-7.0312-19.312 0.42188-26.531 7.4062-7.2188 19.312-7.0312 26.484 0.42188 8.9531 9.375 21.328 14.719 34.312 14.719s25.359-5.3438 34.312-14.719c7.1719-7.4531 19.078-7.6406 26.484-0.42188 7.4531 7.2188 7.6406 19.078 0.42188 26.531-15.984 16.688-38.109 26.109-61.219 26.109z" fill="url(#g)"/>
  <path d="m740.29 697.13c-27.938-0.046875-53.109-16.875-63.797-42.703-10.641-25.828-4.7344-55.547 15.047-75.281s49.5-25.594 75.328-14.906c25.781 10.734 42.562 35.953 42.562 63.891-0.14062 38.109-31.031 68.953-69.141 69zm0-100.64v-0.046875c-12.75 0.046875-24.234 7.7344-29.109 19.5-4.875 11.812-2.2031 25.359 6.7969 34.406 9.0469 9 22.594 11.719 34.406 6.8906 11.766-4.875 19.5-16.359 19.547-29.109 0-8.3906-3.3281-16.453-9.2812-22.359-5.9062-5.9531-13.969-9.2812-22.359-9.3281z" fill="url(#e)"/>
  <path d="m463.69 697.13c-27.891-0.046875-53.062-16.922-63.75-42.75-10.641-25.828-4.6875-55.5 15.094-75.234s49.5-25.594 75.281-14.906c25.828 10.734 42.609 35.953 42.562 63.891-0.09375 38.109-31.031 69-69.188 69zm0-100.64v-0.046875c-12.75 0.046875-24.188 7.7812-29.062 19.547-4.875 11.812-2.1562 25.359 6.8438 34.359 9.0469 9.0469 22.594 11.719 34.359 6.8906 11.812-4.875 19.5-16.359 19.547-29.109 0-8.3906-3.3281-16.453-9.2812-22.406-5.9062-5.9531-13.969-9.2812-22.406-9.2812z" fill="url(#e)"/>
  <path d="m1050 1154.3h-900c-10.359 0-18.75-8.3906-18.75-18.75 0.046875-49.734 19.828-97.359 54.984-132.52s82.781-54.938 132.52-54.984h562.5c49.734 0.046875 97.359 19.828 132.52 54.984s54.938 82.781 54.984 132.52c0 4.9688-1.9688 9.75-5.4844 13.266s-8.2969 5.4844-13.266 5.4844zm-880.08-37.5h860.16c-9.5156-74.953-73.266-131.16-148.82-131.26h-562.5c-75.562 0.09375-139.31 56.297-148.82 131.26z" fill="url(#g)"/>
</svg>
